<svg width="0" height="0" class="hidden">
  <symbol xmlns="http://www.w3.org/2000/svg" fill="none" viewBox="0 0 16 16" id="linkedin-logo">
    <path fill="#0A66C2" d="M12.225 12.225h-1.778V9.44c0-.664-.012-1.519-.925-1.519-.926 0-1.068.724-1.068 1.47v2.834H6.676V6.498h1.707v.783h.024c.348-.594.996-.95 1.684-.925 1.802 0 2.135 1.185 2.135 2.728l-.001 3.14zM4.67 5.715a1.037 1.037 0 01-1.032-1.031c0-.566.466-1.032 1.032-1.032.566 0 1.031.466 1.032 1.032 0 .566-.466 1.032-1.032 1.032zm.889 6.51h-1.78V6.498h1.78v5.727zM13.11 2H2.885A.88.88 0 002 2.866v10.268a.88.88 0 00.885.866h10.226a.882.882 0 00.889-.866V2.865a.88.88 0 00-.889-.864z"></path>
  </symbol>
</svg>
<svg width="0" height="0" class="hidden">
  <symbol fill="#000000" version="1.1" xmlns="http://www.w3.org/2000/svg" viewBox="-8 0 32 32" id="search">
    <title>search</title>
    <path d="M16.080 22.72l-4.16-4.16c2.040-2.6 1.84-6.4-0.56-8.76-1.24-1.24-2.92-1.96-4.72-1.96s-3.44 0.68-4.68 1.96c-1.28 1.24-1.96 2.92-1.96 4.68s0.68 3.44 1.96 4.72c1.24 1.24 2.92 1.96 4.72 1.96 1.48 0 2.92-0.48 4.080-1.4l4.16 4.16c0.16 0.16 0.36 0.24 0.6 0.24s0.44-0.080 0.6-0.24c0.28-0.32 0.28-0.88-0.040-1.2zM3.12 18c-0.92-0.92-1.44-2.2-1.44-3.52s0.52-2.56 1.44-3.52c0.96-0.92 2.2-1.44 3.52-1.44s2.56 0.52 3.52 1.44c1.92 1.96 1.92 5.080 0 7.040-0.92 0.92-2.2 1.44-3.52 1.44-1.32 0.040-2.56-0.48-3.52-1.44z"></path>
  </symbol>
</svg>
